<?xml version="1.0" encoding="utf-8"?>
<?xml-stylesheet type="text/xsl" href="rss1.xsl"?>
<rss version="2.0" xmlns:atom="http://www.w3.org/2005/Atom" xmlns:content="http://purl.org/rss/1.0/modules/content/" xmlns:dc="http://purl.org/dc/elements/1.1/" xmlns:media="http://search.yahoo.com/mrss/">
<channel>
 <title>sharemania</title>
 <link>http://www.sharemania.us/</link>
 <atom:link href="http://www.gettyimg.com/" rel="self" type="application/rss+xml" />

 
                <item>
                <title><![CDATA[【Singles (lossless)】ALAC - aespa – Rich Man - The 6th Mini Album |ALAC 24bit/96.0kHz|]]></title>
                <link><![CDATA[https://sharemania.us/threads/aespa-%E2%80%93-rich-man-the-6th-mini-album-alac-24bit-96-0khz.283372/]]></link>
                <description><![CDATA[<article>
				<blockquote class="messageText SelectQuoteContainer ugc baseHtml">
					
					<div style="text-align: center"><img src="https://a5.mzstatic.com/us/r1000/0/Music211/v4/c5/ff/d7/c5ffd7a9-ed3c-6d02-81d7-7cc7e2dee419/888735953019_Cover.jpg" class="bbCodeImage LbImage" alt="[​IMG]" data-url="https://a5.mzstatic.com/us/r1000/0/Music211/v4/c5/ff/d7/c5ffd7a9-ed3c-6d02-81d7-7cc7e2dee419/888735953019_Cover.jpg" style=""><br>
<img src="https://i.ibb.co/gFw5vHCS/kjkjage.png" class="bbCodeImage LbImage" alt="[​IMG]" data-url="https://i.ibb.co/gFw5vHCS/kjkjage.png" style=""><br>




<div class="bbCodeBlock bbCodeVfcHH HiddenContent">
	<div class="attribution type">Hidden Content:</div>
	<blockquote>You must reply before you can see the hidden data contained here.</blockquote>
</div></div>
					<div class="messageTextEndMarker">&nbsp;</div>
				</blockquote>
			</article>]]></description>
                <author><![CDATA[fstambuk]]></author>
                </item>

                
                <item>
                <title><![CDATA[【Bugs!】aespa - Rich Man (Bugs! 4K)]]></title>
                <link><![CDATA[https://sharemania.us/threads/aespa-rich-man-bugs-4k.283371/]]></link>
                <description><![CDATA[<article>
				<blockquote class="messageText SelectQuoteContainer ugc baseHtml">
					
					<span data-s9e-mediaembed="youtube" style="display:inline-block;width:100%;max-width:640px"><span style="display:block;overflow:hidden;position:relative;padding-bottom:56.25%"><iframe allowfullscreen="" loading="lazy" scrolling="no" style="background:url(https://i.ytimg.com/vi/5oQVTnq-UKk/hqdefault.jpg) 50% 50% / cover;border:0;height:100%;left:0;position:absolute;width:100%" src="https://www.youtube.com/embed/5oQVTnq-UKk"></iframe></span></span><br>



<div class="ToggleTriggerAnchor bbCodeSpoilerContainer">
	<button type="button" class="button bbCodeSpoilerButton ToggleTrigger Tooltip JsOnly" data-target="&gt; .SpoilerTarget"><span>Spoiler</span></button>
	<div class="SpoilerTarget bbCodeSpoilerText">General<br>
Complete name                  : H:\bugs\aespa - Rich Man (Bugs! 4K).mp4<br>
Format                         : MPEG-4<br>
Format profile                 : Base Media / Version 2<br>
Codec ID                       : mp42 (mp42/mp41)<br>
File size                      : 2.44 GiB<br>
Duration                       : 3 min 29 s<br>
Overall bit rate mode          : Variable<br>
Overall bit rate               : 100 Mb/s<br>
Frame rate                     : 23.976 FPS<br>
Encoded date                   : 2025-09-04 21:44:42 UTC<br>
Tagged date                    : 2025-09-04 21:49:21 UTC<br>
TIM                            : 00:00:00:00<br>
TSC                            : 24000<br>
TSZ                            : 1001<br>
<br>
Video<br>
ID                             : 1<br>
Format                         : AVC<br>
Format/Info                    : Advanced Video Codec<br>
Format profile                 : Main@L5.1<br>
Format settings                : CABAC / 4 Ref Frames<br>
Format settings, CABAC         : Yes<br>
Format settings, Reference fra : 4 frames<br>
Codec ID                       : avc1<br>
Codec ID/Info                  : Advanced Video Coding<br>
Duration                       : 3 min 29 s<br>
Bit rate mode                  : Constant<br>
Bit rate                       : 100.0 Mb/s<br>
Width                          : 3 840 pixels<br>
Height                         : 2 160 pixels<br>
Display aspect ratio           : 16:9<br>
Frame rate mode                : Constant<br>
Frame rate                     : 23.976 (24000/1001) FPS<br>
Color space                    : YUV<br>
Chroma subsampling             : 4:2:0<br>
Bit depth                      : 8 bits<br>
Scan type                      : Progressive<br>
Bits/(Pixel*Frame)             : 0.503<br>
Stream size                    : 2.43 GiB (100%)<br>
Writing library                : AVC Coding<br>
Language                       : English<br>
Encoded date                   : 2025-09-04 21:44:45 UTC<br>
Tagged date                    : 2025-09-04 21:44:45 UTC<br>
Color range                    : Limited<br>
Color primaries                : BT.709<br>
Transfer characteristics       : BT.709<br>
Matrix coefficients            : BT.709<br>
Codec configuration box        : avcC<br>
<br>
Audio<br>
ID                             : 2<br>
Format                         : AAC LC<br>
Format/Info                    : Advanced Audio Codec Low Complexity<br>
Codec ID                       : mp4a-40-2<br>
Duration                       : 3 min 29 s<br>
Source duration                : 3 min 29 s<br>
Bit rate mode                  : Variable<br>
Bit rate                       : 317 kb/s<br>
Maximum bit rate               : 489 kb/s<br>
Channel(s)                     : 2 channels<br>
Channel layout                 : L R<br>
Sampling rate                  : 48.0 kHz<br>
Frame rate                     : 46.875 FPS (1024 SPF)<br>
Compression mode               : Lossy<br>
Stream size                    : 7.92 MiB (0%)<br>
Source stream size             : 7.92 MiB (0%)<br>
Language                       : English<br>
Encoded date                   : 2025-09-04 21:44:43 UTC<br>
Tagged date                    : 2025-09-04 21:44:43 UTC</div>
</div>



<div class="bbCodeBlock bbCodeVfcHH HiddenContent">
	<div class="attribution type">Hidden Content:</div>
	<blockquote>You must reply before you can see the hidden data contained here.</blockquote>
</div>
					<div class="messageTextEndMarker">&nbsp;</div>
				</blockquote>
			</article>]]></description>
                <author><![CDATA[Once14]]></author>
                </item>

                </channel></rss>